<svg xmlns="http://www.w3.org/2000/svg" xmlns:xlink="http://www.w3.org/1999/xlink" width="80" zoomAndPan="magnify" viewBox="0 0 60 60" height="80" preserveAspectRatio="xMidYMid meet" version="1.0"><defs><g/><clipPath id="6db78380fb"><path d="M 3.335938 50 L 37.605469 50 L 37.605469 58.695312 L 3.335938 58.695312 Z M 3.335938 50 " clip-rule="nonzero"/></clipPath><clipPath id="f7258462bc"><path d="M 3.335938 4.707031 L 46.757812 4.707031 L 46.757812 58.628906 L 3.335938 58.628906 Z M 3.335938 4.707031 " clip-rule="nonzero"/></clipPath></defs><g clip-path="url(#6db78380fb)"><path fill="#f9f6f2" d="M 37.589844 50.207031 C 35.125 50.203125 33.777344 51.0625 32.539062 51.847656 C 31.085938 52.773438 29.78125 53.605469 27.078125 52.921875 C 27.023438 52.90625 26.859375 52.855469 26.613281 52.773438 C 25.226562 52.328125 21.15625 51.011719 18.84375 50.984375 C 17.707031 50.96875 17.292969 51.210938 17.289062 51.570312 C 17.277344 52.367188 18.859375 53.757812 19.796875 54.578125 C 20.039062 54.792969 20.242188 54.972656 20.371094 55.101562 C 21.261719 55.992188 21.5625 56.835938 21.457031 57.453125 C 21.398438 57.789062 21.222656 58.054688 20.960938 58.234375 C 20.703125 58.40625 20.367188 58.492188 19.972656 58.464844 C 18.996094 58.394531 17.636719 57.625 16.332031 55.765625 C 15.914062 55.167969 15.503906 54.585938 15.070312 54.195312 C 14.660156 53.824219 14.226562 53.621094 13.734375 53.742188 C 12.957031 53.933594 12.84375 54.660156 12.722656 55.460938 C 12.589844 56.347656 12.441406 57.316406 11.46875 57.890625 C 10.582031 58.417969 9.84375 58.285156 9.078125 58.144531 C 8.503906 58.042969 7.917969 57.9375 7.257812 58.140625 C 6.59375 58.34375 5.902344 58.53125 5.199219 58.625 C 4.582031 58.710938 3.957031 58.726562 3.335938 58.621094 L 3.539062 58.316406 C 4.078125 58.386719 4.617188 58.371094 5.15625 58.296875 C 5.839844 58.203125 6.511719 58.023438 7.164062 57.824219 C 7.898438 57.597656 8.527344 57.710938 9.136719 57.820312 C 9.839844 57.945312 10.519531 58.070312 11.296875 57.605469 C 12.136719 57.109375 12.269531 56.222656 12.394531 55.414062 C 12.535156 54.496094 12.660156 53.664062 13.65625 53.421875 C 14.277344 53.269531 14.804688 53.507812 15.292969 53.949219 C 15.753906 54.363281 16.175781 54.964844 16.605469 55.578125 C 17.839844 57.34375 19.101562 58.070312 19.992188 58.132812 C 20.3125 58.15625 20.578125 58.089844 20.773438 57.957031 C 20.960938 57.832031 21.085938 57.636719 21.128906 57.398438 C 21.21875 56.878906 20.941406 56.140625 20.136719 55.332031 C 20.023438 55.222656 19.820312 55.042969 19.574219 54.828125 L 19.578125 54.828125 C 18.597656 53.96875 16.945312 52.515625 16.957031 51.566406 C 16.964844 51.007812 17.46875 50.636719 18.847656 50.652344 C 21.210938 50.683594 25.316406 52.007812 26.710938 52.457031 C 26.949219 52.535156 27.105469 52.585938 27.160156 52.597656 C 29.722656 53.246094 30.972656 52.453125 32.363281 51.570312 C 33.148438 51.070312 33.976562 50.542969 35.09375 50.210938 C 35.921875 49.96875 37.019531 49.894531 37.589844 50.207031 " fill-opacity="1" fill-rule="nonzero"/></g><g clip-path="url(#f7258462bc)"><path fill="#f9f6f2" d="M 7.003906 53.101562 C 5.554688 51.542969 6.402344 48.128906 6.925781 46.15625 C 7.644531 43.632812 8.5 41.367188 9.410156 39.667969 C 10.875 38.785156 16.847656 36.441406 21.167969 28.96875 L 16.042969 31.265625 C 22.355469 27.105469 26.613281 19.253906 34.496094 15.011719 C 34.496094 15.011719 29.15625 15.261719 26.320312 17.246094 C 26.320312 17.246094 29.632812 14.429688 38.003906 13.199219 L 34.878906 11.652344 L 39.144531 12.207031 C 39.144531 12.207031 41.21875 7.199219 46.757812 5.359375 C 46.757812 5.359375 27.066406 0.769531 20.457031 15.898438 C 20.457031 15.898438 21.644531 12.152344 23.460938 8.921875 C 23.460938 8.921875 14.203125 10.898438 9.757812 23.550781 C 9.757812 23.550781 10.824219 18.355469 11.953125 16.042969 C 11.953125 16.042969 6.261719 21.132812 6.503906 31.210938 C 6.503906 31.210938 5.1875 27.816406 5.539062 24.988281 C 5.539062 24.988281 0.953125 31.230469 6.636719 38.339844 C 7.378906 36.679688 14.625 19.8125 25.789062 14.039062 C 12.460938 23.898438 5.070312 42.425781 3.335938 58.621094 L 7.003906 53.101562 " fill-opacity="1" fill-rule="evenodd"/></g><g fill="#f9f6f2" fill-opacity="1"><g transform="translate(26.262736, 30.644017)"><g><path d="M 1.109375 -4.078125 C 1.109375 -4.273438 1.085938 -4.421875 1.046875 -4.515625 C 1.015625 -4.609375 0.96875 -4.671875 0.90625 -4.703125 C 0.851562 -4.742188 0.757812 -4.785156 0.625 -4.828125 C 0.5 -4.859375 0.378906 -4.894531 0.265625 -4.9375 L 0.28125 -5.140625 L 2.234375 -5.140625 C 2.734375 -5.140625 3.164062 -5.113281 3.53125 -5.0625 C 3.90625 -5.007812 4.226562 -4.878906 4.5 -4.671875 C 4.78125 -4.460938 4.921875 -4.144531 4.921875 -3.71875 C 4.921875 -3.375 4.835938 -3.082031 4.671875 -2.84375 C 4.515625 -2.613281 4.296875 -2.441406 4.015625 -2.328125 C 3.742188 -2.222656 3.441406 -2.171875 3.109375 -2.171875 C 3.046875 -2.171875 2.945312 -2.179688 2.8125 -2.203125 C 2.675781 -2.222656 2.550781 -2.25 2.4375 -2.28125 C 2.332031 -2.320312 2.28125 -2.367188 2.28125 -2.421875 C 2.28125 -2.472656 2.335938 -2.5 2.453125 -2.5 L 2.515625 -2.5 C 2.835938 -2.5 3.101562 -2.523438 3.3125 -2.578125 C 3.519531 -2.640625 3.6875 -2.753906 3.8125 -2.921875 C 3.9375 -3.085938 4 -3.332031 4 -3.65625 C 4 -3.945312 3.921875 -4.179688 3.765625 -4.359375 C 3.609375 -4.546875 3.40625 -4.675781 3.15625 -4.75 C 2.90625 -4.832031 2.632812 -4.875 2.34375 -4.875 C 2.226562 -4.875 2.097656 -4.863281 1.953125 -4.84375 L 1.953125 -1.09375 C 1.953125 -0.863281 1.96875 -0.695312 2 -0.59375 C 2.03125 -0.5 2.070312 -0.4375 2.125 -0.40625 C 2.1875 -0.375 2.28125 -0.347656 2.40625 -0.328125 C 2.570312 -0.296875 2.722656 -0.253906 2.859375 -0.203125 L 2.84375 0 L 0.28125 0 L 0.265625 -0.203125 L 0.390625 -0.234375 C 0.546875 -0.273438 0.671875 -0.316406 0.765625 -0.359375 C 0.859375 -0.398438 0.9375 -0.460938 1 -0.546875 C 1.070312 -0.628906 1.109375 -0.738281 1.109375 -0.875 Z M 1.109375 -4.078125 "/></g></g></g><g fill="#f9f6f2" fill-opacity="1"><g transform="translate(31.418034, 30.644017)"><g><path d="M 3.171875 -5.25 C 3.671875 -5.25 4.125 -5.132812 4.53125 -4.90625 C 4.945312 -4.6875 5.273438 -4.375 5.515625 -3.96875 C 5.765625 -3.5625 5.890625 -3.09375 5.890625 -2.5625 C 5.890625 -2.039062 5.765625 -1.578125 5.515625 -1.171875 C 5.265625 -0.765625 4.925781 -0.445312 4.5 -0.21875 C 4.070312 0 3.601562 0.109375 3.09375 0.109375 C 2.632812 0.109375 2.203125 0.00390625 1.796875 -0.203125 C 1.390625 -0.421875 1.0625 -0.726562 0.8125 -1.125 C 0.5625 -1.53125 0.4375 -1.992188 0.4375 -2.515625 C 0.4375 -3.097656 0.566406 -3.59375 0.828125 -4 C 1.085938 -4.40625 1.425781 -4.710938 1.84375 -4.921875 C 2.257812 -5.140625 2.703125 -5.25 3.171875 -5.25 Z M 3.3125 -0.203125 C 3.625 -0.203125 3.90625 -0.285156 4.15625 -0.453125 C 4.414062 -0.617188 4.613281 -0.859375 4.75 -1.171875 C 4.894531 -1.492188 4.96875 -1.875 4.96875 -2.3125 C 4.96875 -2.800781 4.882812 -3.242188 4.71875 -3.640625 C 4.5625 -4.046875 4.332031 -4.363281 4.03125 -4.59375 C 3.738281 -4.820312 3.410156 -4.9375 3.046875 -4.9375 C 2.734375 -4.9375 2.445312 -4.859375 2.1875 -4.703125 C 1.9375 -4.546875 1.734375 -4.304688 1.578125 -3.984375 C 1.429688 -3.671875 1.359375 -3.289062 1.359375 -2.84375 C 1.359375 -2.351562 1.441406 -1.90625 1.609375 -1.5 C 1.773438 -1.09375 2.003906 -0.773438 2.296875 -0.546875 C 2.597656 -0.316406 2.9375 -0.203125 3.3125 -0.203125 Z M 3.3125 -0.203125 "/></g></g></g><g fill="#f9f6f2" fill-opacity="1"><g transform="translate(37.750557, 30.644017)"><g><path d="M 0.78125 -1.59375 C 0.800781 -1.539062 0.816406 -1.488281 0.828125 -1.4375 C 0.847656 -1.394531 0.867188 -1.335938 0.890625 -1.265625 C 0.898438 -1.234375 0.910156 -1.203125 0.921875 -1.171875 C 1.015625 -0.867188 1.191406 -0.632812 1.453125 -0.46875 C 1.710938 -0.3125 2.003906 -0.234375 2.328125 -0.234375 C 2.503906 -0.234375 2.675781 -0.265625 2.84375 -0.328125 C 3.007812 -0.390625 3.144531 -0.484375 3.25 -0.609375 C 3.351562 -0.734375 3.40625 -0.882812 3.40625 -1.0625 C 3.40625 -1.21875 3.347656 -1.363281 3.234375 -1.5 C 3.128906 -1.632812 2.992188 -1.753906 2.828125 -1.859375 C 2.671875 -1.960938 2.453125 -2.09375 2.171875 -2.25 C 1.835938 -2.4375 1.566406 -2.597656 1.359375 -2.734375 C 1.148438 -2.878906 0.972656 -3.050781 0.828125 -3.25 C 0.679688 -3.445312 0.609375 -3.671875 0.609375 -3.921875 C 0.609375 -4.222656 0.691406 -4.472656 0.859375 -4.671875 C 1.035156 -4.867188 1.257812 -5.015625 1.53125 -5.109375 C 1.800781 -5.203125 2.085938 -5.25 2.390625 -5.25 C 2.648438 -5.25 2.90625 -5.210938 3.15625 -5.140625 C 3.414062 -5.078125 3.660156 -4.988281 3.890625 -4.875 L 3.9375 -3.75 L 3.703125 -3.75 C 3.671875 -3.8125 3.632812 -3.90625 3.59375 -4.03125 L 3.546875 -4.15625 C 3.460938 -4.414062 3.304688 -4.609375 3.078125 -4.734375 C 2.859375 -4.867188 2.609375 -4.9375 2.328125 -4.9375 C 2.179688 -4.9375 2.03125 -4.910156 1.875 -4.859375 C 1.726562 -4.816406 1.601562 -4.742188 1.5 -4.640625 C 1.394531 -4.535156 1.34375 -4.40625 1.34375 -4.25 C 1.34375 -4.101562 1.394531 -3.96875 1.5 -3.84375 C 1.601562 -3.71875 1.734375 -3.601562 1.890625 -3.5 C 2.046875 -3.40625 2.265625 -3.28125 2.546875 -3.125 C 2.890625 -2.9375 3.171875 -2.765625 3.390625 -2.609375 C 3.609375 -2.460938 3.796875 -2.285156 3.953125 -2.078125 C 4.109375 -1.867188 4.1875 -1.628906 4.1875 -1.359375 C 4.1875 -1.023438 4.09375 -0.75 3.90625 -0.53125 C 3.726562 -0.3125 3.492188 -0.148438 3.203125 -0.046875 C 2.910156 0.0546875 2.601562 0.109375 2.28125 0.109375 C 1.988281 0.109375 1.675781 0.0703125 1.34375 0 C 1.007812 -0.0703125 0.742188 -0.171875 0.546875 -0.296875 L 0.546875 -1.578125 Z M 0.78125 -1.59375 "/></g></g></g><g fill="#f9f6f2" fill-opacity="1"><g transform="translate(42.360698, 30.644017)"><g><path d="M 1.734375 -4.859375 C 1.492188 -4.859375 1.300781 -4.847656 1.15625 -4.828125 C 1.070312 -4.804688 0.988281 -4.765625 0.90625 -4.703125 C 0.832031 -4.648438 0.769531 -4.582031 0.71875 -4.5 C 0.664062 -4.425781 0.597656 -4.328125 0.515625 -4.203125 C 0.441406 -4.054688 0.375 -3.945312 0.3125 -3.875 L 0.140625 -3.875 L 0.234375 -5.171875 C 0.671875 -5.148438 1.234375 -5.140625 1.921875 -5.140625 L 3.96875 -5.140625 C 4.507812 -5.140625 4.941406 -5.148438 5.265625 -5.171875 L 5.390625 -3.875 L 5.203125 -3.875 C 5.160156 -3.925781 5.117188 -3.988281 5.078125 -4.0625 C 5.035156 -4.132812 5.007812 -4.179688 5 -4.203125 C 4.894531 -4.390625 4.796875 -4.535156 4.703125 -4.640625 C 4.609375 -4.742188 4.5 -4.804688 4.375 -4.828125 C 4.289062 -4.835938 4.203125 -4.84375 4.109375 -4.84375 C 4.015625 -4.851562 3.898438 -4.859375 3.765625 -4.859375 L 3.171875 -4.859375 L 3.171875 -0.953125 C 3.171875 -0.742188 3.203125 -0.59375 3.265625 -0.5 C 3.335938 -0.40625 3.429688 -0.335938 3.546875 -0.296875 C 3.660156 -0.265625 3.832031 -0.234375 4.0625 -0.203125 C 4.0625 -0.109375 4.054688 -0.0390625 4.046875 0 L 1.4375 0 L 1.421875 -0.203125 C 1.472656 -0.222656 1.546875 -0.242188 1.640625 -0.265625 C 1.796875 -0.316406 1.914062 -0.363281 2 -0.40625 C 2.09375 -0.445312 2.164062 -0.507812 2.21875 -0.59375 C 2.28125 -0.6875 2.3125 -0.804688 2.3125 -0.953125 L 2.3125 -4.859375 Z M 1.734375 -4.859375 "/></g></g></g><g fill="#f9f6f2" fill-opacity="1"><g transform="translate(47.871534, 30.644017)"><g/></g></g><g fill="#f9f6f2" fill-opacity="1"><g transform="translate(49.767735, 30.644017)"><g><path d="M 2.015625 -1.03125 C 2.015625 -0.832031 2.03125 -0.679688 2.0625 -0.578125 C 2.101562 -0.484375 2.148438 -0.421875 2.203125 -0.390625 C 2.265625 -0.359375 2.363281 -0.332031 2.5 -0.3125 C 2.65625 -0.28125 2.796875 -0.242188 2.921875 -0.203125 L 2.90625 0 L 0.28125 0 L 0.28125 -0.203125 C 0.363281 -0.234375 0.429688 -0.253906 0.484375 -0.265625 C 0.546875 -0.285156 0.628906 -0.304688 0.734375 -0.328125 C 0.847656 -0.335938 0.929688 -0.359375 0.984375 -0.390625 C 1.046875 -0.421875 1.085938 -0.488281 1.109375 -0.59375 C 1.140625 -0.695312 1.15625 -0.863281 1.15625 -1.09375 L 1.15625 -4.078125 C 1.15625 -4.285156 1.132812 -4.441406 1.09375 -4.546875 C 1.0625 -4.648438 1.015625 -4.71875 0.953125 -4.75 C 0.898438 -4.78125 0.816406 -4.800781 0.703125 -4.8125 C 0.609375 -4.832031 0.53125 -4.847656 0.46875 -4.859375 C 0.40625 -4.878906 0.335938 -4.90625 0.265625 -4.9375 L 0.28125 -5.140625 L 2.890625 -5.140625 L 2.90625 -4.9375 C 2.851562 -4.914062 2.773438 -4.894531 2.671875 -4.875 C 2.523438 -4.832031 2.40625 -4.789062 2.3125 -4.75 C 2.226562 -4.71875 2.15625 -4.660156 2.09375 -4.578125 C 2.039062 -4.503906 2.015625 -4.398438 2.015625 -4.265625 Z M 2.015625 -1.03125 "/></g></g></g><g fill="#f9f6f2" fill-opacity="1"><g transform="translate(52.955725, 30.644017)"><g><path d="M 1.734375 -4.859375 C 1.492188 -4.859375 1.300781 -4.847656 1.15625 -4.828125 C 1.070312 -4.804688 0.988281 -4.765625 0.90625 -4.703125 C 0.832031 -4.648438 0.769531 -4.582031 0.71875 -4.5 C 0.664062 -4.425781 0.597656 -4.328125 0.515625 -4.203125 C 0.441406 -4.054688 0.375 -3.945312 0.3125 -3.875 L 0.140625 -3.875 L 0.234375 -5.171875 C 0.671875 -5.148438 1.234375 -5.140625 1.921875 -5.140625 L 3.96875 -5.140625 C 4.507812 -5.140625 4.941406 -5.148438 5.265625 -5.171875 L 5.390625 -3.875 L 5.203125 -3.875 C 5.160156 -3.925781 5.117188 -3.988281 5.078125 -4.0625 C 5.035156 -4.132812 5.007812 -4.179688 5 -4.203125 C 4.894531 -4.390625 4.796875 -4.535156 4.703125 -4.640625 C 4.609375 -4.742188 4.5 -4.804688 4.375 -4.828125 C 4.289062 -4.835938 4.203125 -4.84375 4.109375 -4.84375 C 4.015625 -4.851562 3.898438 -4.859375 3.765625 -4.859375 L 3.171875 -4.859375 L 3.171875 -0.953125 C 3.171875 -0.742188 3.203125 -0.59375 3.265625 -0.5 C 3.335938 -0.40625 3.429688 -0.335938 3.546875 -0.296875 C 3.660156 -0.265625 3.832031 -0.234375 4.0625 -0.203125 C 4.0625 -0.109375 4.054688 -0.0390625 4.046875 0 L 1.4375 0 L 1.421875 -0.203125 C 1.472656 -0.222656 1.546875 -0.242188 1.640625 -0.265625 C 1.796875 -0.316406 1.914062 -0.363281 2 -0.40625 C 2.09375 -0.445312 2.164062 -0.507812 2.21875 -0.59375 C 2.28125 -0.6875 2.3125 -0.804688 2.3125 -0.953125 L 2.3125 -4.859375 Z M 1.734375 -4.859375 "/></g></g></g><g fill="#f9f6f2" fill-opacity="1"><g transform="translate(26.572631, 37.677387)"><g><path d="M 0.625 -2.234375 C 0.625 -2.347656 0.613281 -2.429688 0.59375 -2.484375 C 0.570312 -2.535156 0.546875 -2.570312 0.515625 -2.59375 C 0.484375 -2.613281 0.429688 -2.632812 0.359375 -2.65625 C 0.347656 -2.664062 0.320312 -2.675781 0.28125 -2.6875 C 0.238281 -2.695312 0.191406 -2.710938 0.140625 -2.734375 L 0.15625 -2.84375 L 1.390625 -2.84375 C 1.628906 -2.84375 1.835938 -2.828125 2.015625 -2.796875 C 2.191406 -2.773438 2.347656 -2.710938 2.484375 -2.609375 C 2.617188 -2.503906 2.6875 -2.34375 2.6875 -2.125 C 2.6875 -1.769531 2.421875 -1.546875 1.890625 -1.453125 C 2.046875 -1.453125 2.191406 -1.425781 2.328125 -1.375 C 2.472656 -1.320312 2.59375 -1.242188 2.6875 -1.140625 C 2.78125 -1.035156 2.828125 -0.910156 2.828125 -0.765625 C 2.828125 -0.578125 2.769531 -0.425781 2.65625 -0.3125 C 2.550781 -0.195312 2.410156 -0.113281 2.234375 -0.0625 C 2.066406 -0.0195312 1.894531 0 1.71875 0 L 0.15625 0 L 0.140625 -0.109375 L 0.234375 -0.140625 C 0.316406 -0.160156 0.382812 -0.179688 0.4375 -0.203125 C 0.488281 -0.222656 0.53125 -0.253906 0.5625 -0.296875 C 0.601562 -0.347656 0.625 -0.410156 0.625 -0.484375 Z M 1.09375 -1.59375 C 1.113281 -1.570312 1.140625 -1.554688 1.171875 -1.546875 C 1.203125 -1.535156 1.234375 -1.53125 1.265625 -1.53125 L 1.546875 -1.53125 C 2.015625 -1.53125 2.25 -1.707031 2.25 -2.0625 C 2.25 -2.25 2.195312 -2.382812 2.09375 -2.46875 C 1.988281 -2.5625 1.863281 -2.617188 1.71875 -2.640625 C 1.570312 -2.660156 1.394531 -2.671875 1.1875 -2.671875 L 1.09375 -2.671875 Z M 1.09375 -0.59375 C 1.09375 -0.488281 1.109375 -0.394531 1.140625 -0.3125 C 1.179688 -0.226562 1.242188 -0.1875 1.328125 -0.1875 L 1.6875 -0.1875 C 1.789062 -0.1875 1.890625 -0.207031 1.984375 -0.25 C 2.078125 -0.289062 2.148438 -0.351562 2.203125 -0.4375 C 2.253906 -0.519531 2.28125 -0.617188 2.28125 -0.734375 C 2.28125 -0.929688 2.222656 -1.078125 2.109375 -1.171875 C 1.992188 -1.265625 1.859375 -1.320312 1.703125 -1.34375 C 1.546875 -1.363281 1.359375 -1.375 1.140625 -1.375 C 1.117188 -1.351562 1.101562 -1.328125 1.09375 -1.296875 C 1.09375 -1.265625 1.09375 -1.226562 1.09375 -1.1875 Z M 1.09375 -0.59375 "/></g></g></g><g fill="#f9f6f2" fill-opacity="1"><g transform="translate(31.668113, 37.677387)"><g><path d="M 0.65625 -2.25 C 0.65625 -2.375 0.644531 -2.460938 0.625 -2.515625 C 0.601562 -2.566406 0.570312 -2.601562 0.53125 -2.625 C 0.5 -2.644531 0.441406 -2.660156 0.359375 -2.671875 C 0.265625 -2.691406 0.195312 -2.710938 0.15625 -2.734375 L 0.15625 -2.84375 L 1.625 -2.84375 L 1.625 -2.734375 C 1.582031 -2.710938 1.546875 -2.695312 1.515625 -2.6875 C 1.484375 -2.675781 1.441406 -2.664062 1.390625 -2.65625 C 1.316406 -2.644531 1.257812 -2.628906 1.21875 -2.609375 C 1.1875 -2.597656 1.160156 -2.566406 1.140625 -2.515625 C 1.128906 -2.460938 1.125 -2.378906 1.125 -2.265625 L 1.125 -0.6875 C 1.125 -0.507812 1.140625 -0.382812 1.171875 -0.3125 C 1.203125 -0.25 1.265625 -0.207031 1.359375 -0.1875 C 1.460938 -0.164062 1.640625 -0.15625 1.890625 -0.15625 C 2.046875 -0.15625 2.175781 -0.175781 2.28125 -0.21875 C 2.394531 -0.257812 2.488281 -0.34375 2.5625 -0.46875 L 2.59375 -0.53125 C 2.613281 -0.582031 2.628906 -0.625 2.640625 -0.65625 C 2.660156 -0.6875 2.6875 -0.71875 2.71875 -0.75 L 2.84375 -0.75 L 2.703125 0.03125 C 2.515625 0.0078125 2.359375 0 2.234375 0 L 0.15625 0 L 0.140625 -0.125 C 0.171875 -0.125 0.21875 -0.132812 0.28125 -0.15625 C 0.363281 -0.175781 0.429688 -0.195312 0.484375 -0.21875 C 0.535156 -0.238281 0.578125 -0.269531 0.609375 -0.3125 C 0.640625 -0.363281 0.65625 -0.4375 0.65625 -0.53125 Z M 0.65625 -2.25 "/></g></g></g><g fill="#f9f6f2" fill-opacity="1"><g transform="translate(36.567531, 37.677387)"><g><path d="M 1.75 -2.890625 C 2.03125 -2.890625 2.28125 -2.828125 2.5 -2.703125 C 2.726562 -2.585938 2.910156 -2.414062 3.046875 -2.1875 C 3.179688 -1.96875 3.25 -1.707031 3.25 -1.40625 C 3.25 -1.125 3.179688 -0.867188 3.046875 -0.640625 C 2.910156 -0.421875 2.722656 -0.25 2.484375 -0.125 C 2.242188 0 1.984375 0.0625 1.703125 0.0625 C 1.453125 0.0625 1.210938 0.00390625 0.984375 -0.109375 C 0.765625 -0.234375 0.585938 -0.40625 0.453125 -0.625 C 0.316406 -0.84375 0.25 -1.097656 0.25 -1.390625 C 0.25 -1.710938 0.316406 -1.984375 0.453125 -2.203125 C 0.597656 -2.429688 0.785156 -2.601562 1.015625 -2.71875 C 1.242188 -2.832031 1.488281 -2.890625 1.75 -2.890625 Z M 1.828125 -0.109375 C 2.003906 -0.109375 2.160156 -0.15625 2.296875 -0.25 C 2.429688 -0.34375 2.539062 -0.476562 2.625 -0.65625 C 2.707031 -0.832031 2.75 -1.039062 2.75 -1.28125 C 2.75 -1.550781 2.703125 -1.796875 2.609375 -2.015625 C 2.515625 -2.234375 2.382812 -2.40625 2.21875 -2.53125 C 2.0625 -2.664062 1.878906 -2.734375 1.671875 -2.734375 C 1.503906 -2.734375 1.347656 -2.6875 1.203125 -2.59375 C 1.066406 -2.507812 0.957031 -2.378906 0.875 -2.203125 C 0.789062 -2.023438 0.75 -1.816406 0.75 -1.578125 C 0.75 -1.296875 0.796875 -1.046875 0.890625 -0.828125 C 0.984375 -0.609375 1.109375 -0.429688 1.265625 -0.296875 C 1.429688 -0.171875 1.617188 -0.109375 1.828125 -0.109375 Z M 1.828125 -0.109375 "/></g></g></g><g fill="#f9f6f2" fill-opacity="1"><g transform="translate(42.135745, 37.677387)"><g><path d="M 3.03125 -0.203125 C 2.875 -0.128906 2.695312 -0.0664062 2.5 -0.015625 C 2.300781 0.0351562 2.097656 0.0625 1.890625 0.0625 C 1.566406 0.0625 1.28125 0.00390625 1.03125 -0.109375 C 0.78125 -0.234375 0.585938 -0.40625 0.453125 -0.625 C 0.316406 -0.84375 0.25 -1.097656 0.25 -1.390625 C 0.25 -1.679688 0.328125 -1.941406 0.484375 -2.171875 C 0.640625 -2.398438 0.847656 -2.578125 1.109375 -2.703125 C 1.378906 -2.828125 1.671875 -2.890625 1.984375 -2.890625 C 2.148438 -2.890625 2.304688 -2.875 2.453125 -2.84375 C 2.597656 -2.820312 2.757812 -2.78125 2.9375 -2.71875 L 3 -2.0625 C 2.957031 -2.0625 2.914062 -2.0625 2.875 -2.0625 C 2.851562 -2.070312 2.832031 -2.09375 2.8125 -2.125 C 2.800781 -2.15625 2.78125 -2.195312 2.75 -2.25 C 2.738281 -2.28125 2.722656 -2.304688 2.703125 -2.328125 C 2.691406 -2.359375 2.675781 -2.382812 2.65625 -2.40625 C 2.476562 -2.625 2.234375 -2.734375 1.921875 -2.734375 C 1.703125 -2.734375 1.503906 -2.675781 1.328125 -2.5625 C 1.148438 -2.457031 1.007812 -2.304688 0.90625 -2.109375 C 0.8125 -1.921875 0.765625 -1.707031 0.765625 -1.46875 C 0.765625 -1.21875 0.8125 -0.988281 0.90625 -0.78125 C 1.007812 -0.582031 1.148438 -0.425781 1.328125 -0.3125 C 1.503906 -0.195312 1.707031 -0.140625 1.9375 -0.140625 C 2.050781 -0.140625 2.15625 -0.148438 2.25 -0.171875 C 2.34375 -0.191406 2.429688 -0.226562 2.515625 -0.28125 C 2.535156 -0.425781 2.546875 -0.609375 2.546875 -0.828125 C 2.546875 -0.960938 2.523438 -1.085938 2.484375 -1.203125 C 2.460938 -1.253906 2.429688 -1.285156 2.390625 -1.296875 C 2.347656 -1.316406 2.289062 -1.332031 2.21875 -1.34375 C 2.144531 -1.351562 2.097656 -1.363281 2.078125 -1.375 C 2.078125 -1.394531 2.078125 -1.414062 2.078125 -1.4375 C 2.078125 -1.46875 2.078125 -1.488281 2.078125 -1.5 L 3.390625 -1.5 C 3.390625 -1.488281 3.390625 -1.46875 3.390625 -1.4375 C 3.390625 -1.414062 3.390625 -1.394531 3.390625 -1.375 C 3.367188 -1.375 3.347656 -1.367188 3.328125 -1.359375 C 3.253906 -1.328125 3.195312 -1.300781 3.15625 -1.28125 C 3.125 -1.257812 3.09375 -1.226562 3.0625 -1.1875 C 3.039062 -1.144531 3.03125 -1.085938 3.03125 -1.015625 Z M 3.03125 -0.203125 "/></g></g></g></svg>